<?xml version="1.0" encoding="UTF-8"?>
<svg version="1.1" xmlns="http://www.w3.org/2000/svg" width="1024" height="1024">
<path d="M0 0 C1.37694085 -0.0015919 2.75388092 -0.00405925 4.13081884 -0.00731641 C7.88134553 -0.01367808 11.63176285 -0.00770245 15.38228226 0.00044787 C19.43944878 0.00706521 23.49660387 0.00206779 27.55377197 -0.00143433 C35.48640838 -0.00645939 43.41900289 -0.00085687 51.35163409 0.00841597 C60.59101762 0.01882655 69.83039223 0.01872912 79.06978053 0.01824339 C95.55023198 0.01774351 112.03066397 0.02688633 128.5111084 0.04142761 C144.50460158 0.05553192 160.49807766 0.06259754 176.49157715 0.06193542 C177.47784539 0.06189547 178.46411362 0.06185551 179.48026878 0.06181435 C180.95711529 0.06175381 180.95711529 0.06175381 182.46379709 0.06169206 C200.67973975 0.06100265 218.89567514 0.0668874 237.11161545 0.07584528 C243.55396884 0.0788629 249.9963209 0.07992496 256.43867493 0.08037758 C264.28191642 0.08105899 272.12514565 0.08551393 279.96838194 0.09471039 C283.97089182 0.09933293 287.97338601 0.10237216 291.97589874 0.10111618 C295.63701335 0.10002299 299.2980932 0.10352816 302.95920056 0.1107647 C304.91613338 0.11344399 306.87307101 0.11121521 308.83000422 0.10883266 C310.56558092 0.11366933 310.56558092 0.11366933 312.33621979 0.11860371 C313.33673323 0.11930813 314.33724668 0.12001256 315.36807871 0.12073833 C317.74074335 0.23565678 319.69936484 0.63576597 321.9798584 1.24723816 C322.9698584 1.24723816 323.9598584 1.24723816 324.9798584 1.24723816 C324.6498584 1.90723816 324.3198584 2.56723816 323.9798584 3.24723816 C325.10134277 3.34005066 326.22282715 3.43286316 327.3782959 3.52848816 C332.43916515 4.16916084 336.89910753 5.83276408 341.6048584 7.74723816 C342.47932617 8.10181091 343.35379395 8.45638367 344.25476074 8.82170105 C355.51141215 13.54379716 364.92721566 19.76560755 373.79626465 28.20426941 C375.96085191 30.29866927 375.96085191 30.29866927 378.4486084 32.12614441 C381.37721175 34.58020555 383.63577368 37.33518844 385.9173584 40.37223816 C386.57030884 41.23437927 386.57030884 41.23437927 387.2364502 42.11393738 C406.28592476 67.61000053 408.29745972 94.48714933 408.25596678 125.26089478 C408.25346956 128.74025115 408.26255037 132.21958216 408.27000427 135.69892883 C408.28267141 142.49289569 408.284555 149.28682287 408.28220401 156.08079955 C408.2804116 161.61082424 408.28219013 167.14083702 408.28642845 172.67086029 C408.28702364 173.46179782 408.28761883 174.25273535 408.28823205 175.06764068 C408.28944397 176.67511024 408.2906581 178.28257981 408.29187443 179.89004937 C408.30271931 194.92243537 408.30060206 209.95479886 408.29448958 224.9871861 C408.28932377 238.693916 408.30057249 252.40057476 408.3195878 266.1072906 C408.33903046 280.23196189 408.34721095 294.35659964 408.34346455 308.48128438 C408.34156214 316.39091031 408.34394546 324.30047574 408.35817909 332.21009064 C408.37017626 338.94420364 408.37140555 345.6782189 408.35938893 352.41233346 C408.35355781 355.83785791 408.35390958 359.26306029 408.36439133 362.68859482 C408.47019346 399.9830542 402.60328015 431.94648195 376.0423584 459.55973816 C348.89171632 485.61762993 315.685565 489.73242783 279.64875031 489.63941216 C275.70596821 489.63254899 271.76322406 489.64313834 267.82044983 489.65135193 C260.12122047 489.66461415 252.42207939 489.66184552 244.72284673 489.65311401 C238.46053457 489.64630904 232.19824697 489.64543282 225.93593216 489.64868546 C225.04099814 489.64914515 224.14606412 489.64960485 223.22401089 489.65007848 C221.4053852 489.65103776 219.58675951 489.6520104 217.76813383 489.65299626 C200.7601154 489.66152788 183.75214566 489.6517506 166.74413522 489.63559516 C152.18043266 489.6221894 137.61680185 489.62452653 123.05310059 489.63835144 C106.0983613 489.65443879 89.14366456 489.66070895 72.18891871 489.65151465 C70.37799685 489.6505591 68.56707498 489.64961599 66.75615311 489.64868546 C65.41999111 489.64799122 65.41999111 489.64799122 64.05683594 489.64728295 C57.80789333 489.64470286 51.55897792 489.6490427 45.31003952 489.65612411 C37.68647891 489.66457428 30.06301087 489.66218535 22.43946074 489.64628188 C18.55689085 489.63844689 14.67447479 489.63522514 10.79190636 489.64522934 C-23.86603037 489.72716275 -52.6517275 483.92141653 -78.6451416 459.05973816 C-99.90468778 437.0354601 -110.18454275 408.55229624 -110.1605835 378.20062256 C-110.16355462 377.01323563 -110.16652574 375.8258487 -110.1695869 374.60248035 C-110.17672761 371.32829753 -110.17944311 368.05414682 -110.18018436 364.77995741 C-110.18204542 361.23985505 -110.18959803 357.69976382 -110.19631958 354.15966797 C-110.20986169 346.42783551 -110.21592137 338.69600827 -110.22033024 330.96416593 C-110.22310005 326.12847297 -110.22733876 321.29278199 -110.23183441 316.45709038 C-110.24402244 303.04621411 -110.25432219 289.63533942 -110.2577095 276.22445774 C-110.25792907 275.36725946 -110.25814864 274.51006118 -110.25837485 273.6268872 C-110.25859313 272.76773355 -110.25881141 271.90857991 -110.2590363 271.02339131 C-110.25947976 269.28265862 -110.25992632 267.54192593 -110.26037598 265.80119324 C-110.26059741 264.93774483 -110.26081884 264.07429641 -110.26104698 263.1846829 C-110.26499055 249.21029437 -110.28243322 235.23595813 -110.3057355 221.26158977 C-110.32951292 206.8851981 -110.34191428 192.50883259 -110.34307742 178.13242096 C-110.34399068 170.07241873 -110.34965423 162.01248463 -110.36789703 153.9525013 C-110.38338467 147.08599758 -110.38836793 140.21958303 -110.38015893 133.35306514 C-110.37628261 129.85712043 -110.37703182 126.3613548 -110.39121628 122.86543274 C-110.45151572 104.95866279 -110.47741257 87.18834649 -103.7076416 70.30973816 C-103.40132813 69.51817322 -103.09501465 68.72660828 -102.77941895 67.91105652 C-98.38459081 56.80563763 -92.45652375 47.58534061 -85.0201416 38.24723816 C-84.44393066 37.51505066 -83.86771973 36.78286316 -83.27404785 36.02848816 C-63.04385107 11.57760284 -30.95769917 -0.1269686 0 0 Z " fill="#EAA45B" transform="translate(363.0201416015625,255.7527618408203)"/>
<path d="M0 0 C0.33 0 0.66 0 1 0 C1.78883942 8.09767733 2.14702053 16.10154749 2.14044189 24.2353363 C2.14489858 25.99258525 2.14489858 25.99258525 2.1494453 27.78533417 C2.15656101 31.00134101 2.15929952 34.21731505 2.16004276 37.43332851 C2.16190998 40.91617534 2.16946544 44.39901097 2.17617798 47.8818512 C2.18969447 55.48148023 2.19577552 63.08110394 2.20018864 70.68074298 C2.20296239 75.43690841 2.20720173 80.19307184 2.21169281 84.94923592 C2.22387668 98.14920009 2.23417777 111.34916268 2.2375679 124.54913235 C2.23778747 125.39210013 2.23800703 126.23506792 2.23823325 127.10358018 C2.23845153 127.94842335 2.23866981 128.79326653 2.2388947 129.66371101 C2.23933815 131.37533534 2.23978471 133.08695966 2.24023438 134.79858398 C2.2404558 135.6475865 2.24067723 136.49658902 2.24090537 137.37131888 C2.24484866 151.11069545 2.2622923 164.85001884 2.2855939 178.58937489 C2.30939097 192.73648354 2.32177353 206.88356559 2.32293582 221.03069454 C2.32384789 228.95716795 2.32948124 236.88357203 2.34775543 244.81002617 C2.36326973 251.56255265 2.36821092 258.31498836 2.36001733 265.06752931 C2.35615045 268.50310981 2.3568422 271.93850815 2.37107468 275.3740654 C2.49929541 312.69535059 -3.35662958 344.67850476 -29.9375 372.3125 C-57.08814208 398.37039177 -90.2942934 402.48518968 -126.33110809 402.39217401 C-130.27389019 402.38531083 -134.21663434 402.39590018 -138.15940857 402.40411377 C-145.85863793 402.41737599 -153.55777901 402.41460736 -161.25701167 402.40587585 C-167.51932383 402.39907088 -173.78161143 402.39819466 -180.04392624 402.4014473 C-180.93886026 402.401907 -181.83379428 402.40236669 -182.75584751 402.40284032 C-184.5744732 402.4037996 -186.39309889 402.40477224 -188.21172456 402.4057581 C-205.219743 402.41428972 -222.22771274 402.40451244 -239.23572318 402.388357 C-253.79942574 402.37495124 -268.36305654 402.37728837 -282.92675781 402.39111328 C-299.8814971 402.40720063 -316.83619384 402.41347079 -333.79093969 402.40427649 C-335.60186155 402.40332094 -337.41278342 402.40237783 -339.22370529 402.4014473 C-340.55986729 402.40075306 -340.55986729 402.40075306 -341.92302246 402.40004479 C-348.17196507 402.3974647 -354.42088048 402.40180454 -360.66981888 402.40888596 C-368.29337949 402.41733612 -375.91684753 402.41494719 -383.54039766 402.39904372 C-387.42296754 402.39120873 -391.30538361 402.38798698 -395.18795204 402.39799118 C-432.76999089 402.48667274 -432.76999089 402.48667274 -441 397 C-440.37432129 396.37955811 -439.74864258 395.75911621 -439.10400391 395.11987305 C-436.77987881 392.81280853 -434.45803595 390.50349527 -432.13769531 388.19262695 C-431.13371622 387.19367099 -430.12884068 386.19561513 -429.12304688 385.19848633 C-427.67600662 383.76360007 -426.23224009 382.32548866 -424.7890625 380.88671875 C-423.91975098 380.02264404 -423.05043945 379.15856934 -422.15478516 378.26831055 C-419.87536621 375.99818208 -419.87536621 375.99818208 -418 373 C-417.34 373 -416.68 373 -416 373 C-415.73662842 372.40993164 -415.47325684 371.81986328 -415.2019043 371.21191406 C-413.94798348 368.90427185 -412.64804739 367.43272606 -410.76953125 365.609375 C-410.13515137 364.98659668 -409.50077148 364.36381836 -408.84716797 363.72216797 C-408.17572754 363.07135254 -407.50428711 362.42053711 -406.8125 361.75 C-405.43433998 360.39511643 -404.05800937 359.03836929 -402.68359375 357.6796875 C-402.06540771 357.07366699 -401.44722168 356.46764648 -400.81030273 355.84326172 C-398.37177877 353.36034116 -396.10913196 350.74606849 -393.8671875 348.0859375 C-390.65650847 344.49911197 -387.1860602 341.16709173 -383.76391602 337.78344727 C-380.25546441 334.29932822 -376.93816291 330.72860392 -373.73828125 326.95703125 C-370.85668282 323.7128047 -367.73276456 320.71348128 -364.625 317.6875 C-362.59522303 315.60939501 -360.70383383 313.51799027 -358.81640625 311.31640625 C-354.44224835 306.26984735 -349.69262069 301.62201756 -344.9375 296.9375 C-336.54814882 288.84680828 -336.54814882 288.84680828 -329 280 C-329.33 279.01 -329.66 278.02 -330 277 C-330.65331299 276.91548584 -331.30662598 276.83097168 -331.97973633 276.74389648 C-347.46230706 274.72028222 -362.90591138 272.4656556 -378.32528687 270.00735474 C-380.16299836 269.7153553 -382.00122445 269.42657268 -383.83999634 269.1413269 C-434.05142704 261.32823409 -434.05142704 261.32823409 -448.4375 242.6875 C-454.62666968 233.5686209 -457.19843553 224.11462536 -457.0625 213.1875 C-457.05798828 212.49462891 -457.05347656 211.80175781 -457.04882812 211.08789062 C-457.03713156 209.39188932 -457.01919924 207.69593297 -457 206 C-457.845625 206.04640625 -458.69125 206.0928125 -459.5625 206.140625 C-466.51203225 206.36174648 -472.41282452 206.54370772 -478 202 C-482.62668595 196.89789018 -484.11515315 192.62724406 -484.19287109 185.7277832 C-484.20893402 184.4324617 -484.22499695 183.1371402 -484.24154663 181.80256653 C-484.25303625 180.38531147 -484.26364443 178.96804904 -484.2734375 177.55078125 C-484.27876118 176.83536856 -484.28408485 176.11995586 -484.28956985 175.382864 C-484.31628071 171.59355111 -484.33565913 167.80427087 -484.35009766 164.01489258 C-484.36341582 160.88861697 -484.39123043 157.76299737 -484.43212891 154.63696289 C-484.48162437 150.85328579 -484.50623931 147.0702018 -484.51332474 143.28621483 C-484.52000991 141.84976918 -484.53516048 140.41333535 -484.55921555 138.97707558 C-484.79388298 124.11363073 -484.79388298 124.11363073 -479 118 C-473.67506646 113.84655184 -469.97551436 112.87152956 -463.3125 112.9375 C-462.13300781 112.94652344 -460.95351563 112.95554687 -459.73828125 112.96484375 C-458.38283203 112.98224609 -458.38283203 112.98224609 -457 113 C-457.04640625 111.92363281 -457.0928125 110.84726562 -457.140625 109.73828125 C-457.59158621 94.77222139 -454.75351399 82.04803741 -444.77734375 70.40625 C-417.62757781 41.83660723 -369.06953931 38.05311434 -332.125 34.25 C-330.89587891 34.12222168 -329.66675781 33.99444336 -328.40039062 33.86279297 C-327.21896484 33.74822754 -326.03753906 33.63366211 -324.8203125 33.515625 C-323.79180176 33.41540039 -322.76329102 33.31517578 -321.70361328 33.21191406 C-316.47714746 32.91286513 -311.23501435 33 -306 33 C-306 23.1 -306 13.2 -306 3 C-301.545 4.98 -301.545 4.98 -297 7 C-288.01519435 9.02000314 -281.2934476 7.57213603 -273 4 C-271.68 3.67 -270.36 3.34 -269 3 C-269 12.9 -269 22.8 -269 33 C-265.7 33 -262.4 33 -259 33 C-215.18088653 35.58650016 -159.87473632 41.27060397 -128.8125 75.60546875 C-126.99466034 78.00705434 -125.96803343 80.16144365 -125 83 C-125.74443359 83.72703125 -125.74443359 83.72703125 -126.50390625 84.46875 C-129.94142678 87.86061086 -133.29379069 91.26983914 -136.4375 94.9375 C-140.38181832 99.51946793 -144.56531352 103.88887433 -149 108 C-149.33 108 -149.66 108 -150 108 C-150.09796875 107.16597656 -150.1959375 106.33195312 -150.296875 105.47265625 C-151.92197817 93.24235396 -155.2196654 84.23603378 -165.06640625 76.34375 C-210.19701581 44.69580913 -291.02446958 46.07876358 -343 55 C-344.13840332 55.18755859 -345.27680664 55.37511719 -346.44970703 55.56835938 C-359.45506462 57.7385527 -372.37755655 60.14232115 -385 64 C-386.86785156 64.55107422 -386.86785156 64.55107422 -388.7734375 65.11328125 C-403.5780614 69.63379141 -419.43863082 76.74829665 -427.0625 91.0625 C-430.80452531 99.09726378 -431.29404548 107.44690506 -431.25878906 116.17602539 C-431.2622937 117.25688919 -431.26579834 118.33775299 -431.26940918 119.45137024 C-431.27816332 123.00019887 -431.27240004 126.54882582 -431.265625 130.09765625 C-431.26697336 132.57669615 -431.26891533 135.05573579 -431.27142334 137.53477478 C-431.27436597 142.72023038 -431.27010426 147.9056169 -431.26074219 153.09106445 C-431.2493423 159.72753167 -431.25591611 166.3638372 -431.26788712 173.0002985 C-431.27512384 178.11589266 -431.27280954 183.23144866 -431.26763153 188.34704399 C-431.26630037 190.79379737 -431.26792402 193.24055425 -431.27259064 195.68730354 C-431.27768626 199.10941843 -431.26990303 202.53127353 -431.25878906 205.95336914 C-431.26283752 206.95775024 -431.26688599 207.96213135 -431.27105713 208.99694824 C-431.21304071 218.6708229 -429.57423947 226.5861154 -423 234 C-416.08492509 238.88010917 -409.5288719 239.70904137 -401.26171875 239.6015625 C-400.17792435 239.60956879 -399.09412994 239.61757507 -397.97749329 239.62582397 C-394.54710571 239.648736 -391.11791759 239.63947943 -387.6875 239.625 C-384.23945675 239.62114878 -380.79193306 239.62458978 -377.34394836 239.64559937 C-375.2070883 239.65766554 -373.07008152 239.65505748 -370.93327332 239.63589478 C-364.61888725 239.65973194 -361.08150389 240.31895587 -356.2265625 244.54296875 C-352.65715467 248.20814118 -349.22470228 251.9581366 -345.8828125 255.83203125 C-343.7842468 258.24842951 -341.645603 260.62529024 -339.5 263 C-336.84886006 265.93678465 -334.21709829 268.88602542 -331.625 271.875 C-328.67855899 275.25795079 -325.66078496 278.57236143 -322.625 281.875 C-309.02344596 296.68419032 -309.02344596 296.68419032 -303.375 303.6875 C-300.31819778 307.46604718 -297.16509558 310.95501669 -293.67578125 314.33203125 C-291.88495026 316.11451338 -290.22121334 317.96916459 -288.5625 319.875 C-287.98113281 320.54144531 -287.39976562 321.20789063 -286.80078125 321.89453125 C-285.5700175 323.33353703 -284.35982321 324.79032486 -283.16796875 326.26171875 C-276.26868517 334.53804875 -267.50273015 341.28307245 -256.484375 342.3359375 C-243.88816766 342.46769699 -236.48573274 340.23937003 -227.359375 331.453125 C-220.51441848 324.33618346 -215.30104819 316.47735336 -210.11010742 308.125 C-205.69145659 301.0303219 -201.09124442 294.06712253 -196.4375 287.125 C-190.30569502 277.96880752 -184.21670842 268.78668744 -178.1875 259.5625 C-124.18132714 177.00064742 -124.18132714 177.00064742 -96 137 C-95.4642334 136.2383252 -94.9284668 135.47665039 -94.37646484 134.69189453 C-91.40176772 130.46421058 -88.4186959 126.24253802 -85.43115234 122.02392578 C-83.9677723 119.95442381 -82.50870312 117.88194395 -81.05078125 115.80859375 C-75.37518013 107.74121181 -69.64327987 99.71815686 -63.85571289 91.73071289 C-60.20012243 86.67940109 -56.58648575 81.60056944 -53 76.5 C-48.33863251 69.87077288 -43.61055569 63.29271463 -38.85546875 56.73046875 C-35.20004314 51.67917656 -31.5865076 46.60041625 -28 41.5 C-23.78895236 35.51315888 -19.53727439 29.55750663 -15.25 23.625 C-14.70569336 22.8707373 -14.16138672 22.11647461 -13.60058594 21.33935547 C-11.23351581 18.06459555 -8.85824088 14.79783939 -6.4375 11.5625 C-5.715625 10.593125 -4.99375 9.62375 -4.25 8.625 C-3.32960938 7.40683594 -3.32960938 7.40683594 -2.390625 6.1640625 C-1.03817046 4.05940009 -0.42464711 2.44730836 0 0 Z " fill="#92B28A" transform="translate(769,343)"/>
<path d="M0 0 C7.94435823 9.85383306 13.65396171 25.052398 13.375 37.77734375 C12.69975391 41.77958359 10.38479971 44.34850815 7.8125 47.375 C6.70177823 48.76377638 5.59516375 50.15584538 4.4921875 51.55078125 C3.9156543 52.27346191 3.33912109 52.99614258 2.74511719 53.74072266 C-0.20378739 57.55845671 -2.87354793 61.55952276 -5.5625 65.5625 C-10.7277012 73.19445754 -16.08237413 80.65195245 -21.56689453 88.05615234 C-29.58084249 98.92617852 -37.39516652 109.94131625 -45.16796875 120.984375 C-48.16381059 125.23836903 -51.1889127 129.47101076 -54.21826172 133.70117188 C-57.95119885 138.91928787 -61.64264112 144.1662599 -65.3347168 149.41333008 C-68.42398152 153.7943178 -71.55003414 158.14596495 -74.70581055 162.47924805 C-82.2563957 172.85685672 -89.50336895 183.42223886 -96.6862793 194.0567627 C-98.14405906 196.21309014 -99.60409607 198.36787813 -101.06445312 200.52246094 C-117.15750159 224.26854034 -133.08073989 248.11880751 -148.81542969 272.10374451 C-153.07097468 278.58950321 -157.33775095 285.06779017 -161.609375 291.54296875 C-162.2441275 292.50520859 -162.87888 293.46744843 -163.53286743 294.45884705 C-164.80771452 296.39133305 -166.08258623 298.32380282 -167.35748291 300.2562561 C-175.4787994 312.56683297 -183.59183999 324.88168708 -191.625 337.25 C-193.74596035 340.50265678 -195.87217841 343.75182951 -198 347 C-198.4954834 347.76070801 -198.9909668 348.52141602 -199.50146484 349.30517578 C-207.29754938 361.22451137 -215.62247893 373.89194344 -229.8125 378.6015625 C-240.47454944 380.54357865 -250.34928852 379.38709817 -259.41015625 373.41015625 C-266.82658709 367.85077148 -272.89095711 360.91826313 -279 354 C-279.66 353.25363281 -280.32 352.50726562 -281 351.73828125 C-282.10151143 350.48123233 -283.19934661 349.22094978 -284.29296875 347.95703125 C-286.33633431 345.6144085 -288.41680859 343.30726578 -290.5 341 C-293.18983431 338.01937279 -295.86310364 335.02754767 -298.5 332 C-304.4343428 325.19456101 -310.51362463 318.5212513 -316.625 311.875 C-320.22399664 307.96015039 -323.773725 304.0097238 -327.2578125 299.9921875 C-330.06549267 296.78161152 -332.93327221 293.62552098 -335.796875 290.46484375 C-338.36255192 287.59437896 -340.84386979 284.65855144 -343.296875 281.69140625 C-347.88073541 277.13908616 -351.6857615 276.65947949 -357.93327332 276.63589478 C-358.96978531 276.64519012 -360.0062973 276.65448547 -361.07421875 276.6640625 C-363.29101852 276.65154493 -365.50781541 276.63850758 -367.72460938 276.625 C-371.20249773 276.62107987 -374.68009833 276.62496876 -378.15795898 276.63964844 C-381.52630753 276.64826988 -384.89347405 276.62644465 -388.26171875 276.6015625 C-389.80130501 276.62157822 -389.80130501 276.62157822 -391.37199402 276.64199829 C-398.50717421 276.56978674 -404.08188982 275.10826876 -410 271 C-418.21284851 262.23271742 -419.14822036 253.85830757 -419.16113281 242.22802734 C-419.16609772 241.15402679 -419.17106262 240.08002625 -419.17617798 238.97348022 C-419.19075735 235.42762607 -419.19759527 231.88181668 -419.203125 228.3359375 C-419.20888076 225.86219279 -419.21463844 223.38844808 -419.22039795 220.91470337 C-419.23089651 215.72812696 -419.2367464 210.541566 -419.24023438 205.35498047 C-419.24571082 198.73111783 -419.2697258 192.1074616 -419.29820633 185.48366356 C-419.31689482 180.37219663 -419.32204166 175.26077875 -419.32357025 170.14928055 C-419.32658424 167.70861307 -419.33457006 165.26794619 -419.34775543 162.82731247 C-419.36494264 159.40083186 -419.36290448 155.97484688 -419.35644531 152.54833984 C-419.3656601 151.55362671 -419.37487488 150.55891357 -419.3843689 149.53405762 C-419.31097801 137.01208639 -416.36305649 127.05390263 -407.94921875 117.7265625 C-400.96865016 110.85158234 -392.8715687 106.87131079 -384 103 C-382.43765625 102.30777344 -382.43765625 102.30777344 -380.84375 101.6015625 C-362.37489974 94.27931631 -341.61838968 91.54844359 -322 89 C-321.30151443 88.90674438 -320.60302887 88.81348877 -319.88337708 88.71740723 C-305.49157006 86.83739689 -291.18613196 86.64041957 -276.6875 86.6875 C-274.89894089 86.69073273 -274.89894089 86.69073273 -273.07424927 86.69403076 C-176.56133566 86.97381818 -176.56133566 86.97381818 -147.60546875 115.2265625 C-139.75401719 123.89945546 -137.12798809 131.4758513 -136 143 C-126.14926774 133.34422092 -126.14926774 133.34422092 -116.90234375 123.12109375 C-113.67912668 119.52723981 -110.20267547 116.18344435 -106.77075195 112.7902832 C-103.19498766 109.23939018 -99.80268164 105.60020154 -96.5390625 101.7578125 C-94.39103003 99.30447593 -92.06346246 97.05346756 -89.73828125 94.76953125 C-87.97042684 92.96989519 -86.32745458 91.10398088 -84.6875 89.1875 C-81.92381971 85.97666245 -79.01380404 82.97732835 -76 80 C-73.04816975 77.08373397 -70.19611141 74.15394165 -67.5 71 C-64.80388859 67.84605835 -61.95183025 64.91626603 -59 62 C-56.06881809 59.10408042 -53.23596826 56.19757429 -50.5625 53.0625 C-47.69827567 49.71074813 -44.63664403 46.59444939 -41.5 43.5 C-38.46770728 40.50822564 -35.49845693 37.50847987 -32.75 34.25 C-28.61481174 29.39215748 -24.01649283 24.99207271 -19.48730469 20.50683594 C-15.65956043 16.70202375 -11.97959945 12.84466845 -8.49609375 8.71875 C-5.82809966 5.65369152 -2.91150938 2.83186322 0 0 Z " fill="#FDF8E8" transform="translate(756,307)"/>
<path d="M0 0 C4.455 1.98 4.455 1.98 9 4 C17.98480565 6.02000314 24.7065524 4.57213603 33 1 C34.32 0.67 35.64 0.34 37 0 C37 9.9 37 19.8 37 30 C40.3 30 43.6 30 47 30 C90.81911347 32.58650016 146.12526368 38.27060397 177.1875 72.60546875 C179.00533966 75.00705434 180.03196657 77.16144365 181 80 C180.25556641 80.72703125 180.25556641 80.72703125 179.49609375 81.46875 C176.05857322 84.86061086 172.70620931 88.26983914 169.5625 91.9375 C165.61818168 96.51946793 161.43468648 100.88887433 157 105 C156.67 105 156.34 105 156 105 C155.90203125 104.16597656 155.8040625 103.33195312 155.703125 102.47265625 C154.07802183 90.24235396 150.7803346 81.23603378 140.93359375 73.34375 C95.80298419 41.69580913 14.97553042 43.07876358 -37 52 C-38.13840332 52.18755859 -39.27680664 52.37511719 -40.44970703 52.56835938 C-53.45506462 54.7385527 -66.37755655 57.14232115 -79 61 C-80.24523437 61.36738281 -81.49046875 61.73476563 -82.7734375 62.11328125 C-97.5780614 66.63379141 -113.43863082 73.74829665 -121.0625 88.0625 C-124.80452531 96.09726378 -125.29404548 104.44690506 -125.25878906 113.17602539 C-125.2622937 114.25688919 -125.26579834 115.33775299 -125.26940918 116.45137024 C-125.27816332 120.00019887 -125.27240004 123.54882582 -125.265625 127.09765625 C-125.26697336 129.57669615 -125.26891533 132.05573579 -125.27142334 134.53477478 C-125.27436597 139.72023038 -125.27010426 144.9056169 -125.26074219 150.09106445 C-125.2493423 156.72753167 -125.25591611 163.3638372 -125.26788712 170.0002985 C-125.27512384 175.11589266 -125.27280954 180.23144866 -125.26763153 185.34704399 C-125.26630037 187.79379737 -125.26792402 190.24055425 -125.27259064 192.68730354 C-125.27768626 196.10941843 -125.26990303 199.53127353 -125.25878906 202.95336914 C-125.26283752 203.95775024 -125.26688599 204.96213135 -125.27105713 205.99694824 C-125.21304071 215.6708229 -123.57423947 223.5861154 -117 231 C-110.08492509 235.88010917 -103.5288719 236.70904137 -95.26171875 236.6015625 C-94.17792435 236.60956879 -93.09412994 236.61757507 -91.97749329 236.62582397 C-88.54710571 236.648736 -85.11791759 236.63947943 -81.6875 236.625 C-78.23945675 236.62114878 -74.79193306 236.62458978 -71.34394836 236.64559937 C-69.2070883 236.65766554 -67.07008152 236.65505748 -64.93327332 236.63589478 C-58.61888725 236.65973194 -55.08150389 237.31895587 -50.2265625 241.54296875 C-46.65844084 245.20682051 -43.22682313 248.95510509 -39.88671875 252.828125 C-37.76730616 255.26786288 -35.60542839 257.66579524 -33.4375 260.0625 C-29.89303555 263.98932963 -26.42082097 267.96518552 -23 272 C-23.33 272.66 -23.66 273.32 -24 274 C-40.14532838 271.91140098 -56.24868006 269.57043756 -72.32528687 267.00735474 C-74.16299836 266.7153553 -76.00122445 266.42657268 -77.83999634 266.1413269 C-128.05142704 258.32823409 -128.05142704 258.32823409 -142.4375 239.6875 C-148.62666968 230.5686209 -151.19843553 221.11462536 -151.0625 210.1875 C-151.05798828 209.49462891 -151.05347656 208.80175781 -151.04882812 208.08789062 C-151.03713156 206.39188932 -151.01919924 204.69593297 -151 203 C-151.845625 203.04640625 -152.69125 203.0928125 -153.5625 203.140625 C-160.51203225 203.36174648 -166.41282452 203.54370772 -172 199 C-176.62668595 193.89789018 -178.11515315 189.62724406 -178.19287109 182.7277832 C-178.20893402 181.4324617 -178.22499695 180.1371402 -178.24154663 178.80256653 C-178.25303625 177.38531147 -178.26364443 175.96804904 -178.2734375 174.55078125 C-178.27876118 173.83536856 -178.28408485 173.11995586 -178.28956985 172.382864 C-178.31628071 168.59355111 -178.33565913 164.80427087 -178.35009766 161.01489258 C-178.36341582 157.88861697 -178.39123043 154.76299737 -178.43212891 151.63696289 C-178.48162437 147.85328579 -178.50623931 144.0702018 -178.51332474 140.28621483 C-178.52000991 138.84976918 -178.53516048 137.41333535 -178.55921555 135.97707558 C-178.79388298 121.11363073 -178.79388298 121.11363073 -173 115 C-167.67506646 110.84655184 -163.97551436 109.87152956 -157.3125 109.9375 C-156.13300781 109.94652344 -154.95351563 109.95554687 -153.73828125 109.96484375 C-152.38283203 109.98224609 -152.38283203 109.98224609 -151 110 C-151.04640625 108.92363281 -151.0928125 107.84726562 -151.140625 106.73828125 C-151.59158621 91.77222139 -148.75351399 79.04803741 -138.77734375 67.40625 C-111.62757781 38.83660723 -63.06953931 35.05311434 -26.125 31.25 C-24.89587891 31.12222168 -23.66675781 30.99444336 -22.40039062 30.86279297 C-20.62825195 30.69094482 -20.62825195 30.69094482 -18.8203125 30.515625 C-17.79180176 30.41540039 -16.76329102 30.31517578 -15.70361328 30.21191406 C-10.47714746 29.91286513 -5.23501435 30 0 30 C0 20.1 0 10.2 0 0 Z " fill="#5F7A4A" transform="translate(463,346)"/>
<path d="M0 0 C0 3.58752615 -0.48229202 3.82606843 -2.875 6.3125 C-6.00810922 9.76328034 -8.77143696 13.37152173 -11.4375 17.1875 C-15.74388465 23.32847728 -20.24538157 29.30079136 -24.8125 35.25 C-30.4468025 42.59817133 -35.95594554 50.01762185 -41.34912109 57.54418945 C-45.29948022 63.05132528 -49.33624955 68.48635305 -53.41552734 73.8984375 C-57.2677133 79.01287191 -61.07987803 84.15559279 -64.875 89.3125 C-65.45652832 90.10269531 -66.03805664 90.89289063 -66.63720703 91.70703125 C-68.42524411 94.13769801 -70.21265523 96.56882414 -72 99 C-85.85320641 117.83624189 -85.85320641 117.83624189 -92.58203125 126.76171875 C-94.55799702 129.39548103 -96.50515927 132.04964219 -98.44921875 134.70703125 C-99.06539062 135.54814453 -99.6815625 136.38925781 -100.31640625 137.25585938 C-101.53106263 138.91555166 -102.74343889 140.57691597 -103.953125 142.24023438 C-114.89603759 157.1839157 -114.89603759 157.1839157 -121.04296875 158.40625 C-128.75053223 158.74319267 -133.50614291 155.09255225 -139.12820435 150.11624146 C-141.28454594 148.04345805 -143.38502467 145.92708755 -145.47265625 143.78515625 C-146.6236808 142.62420692 -146.6236808 142.62420692 -147.79795837 141.43980408 C-150.22677212 138.98778978 -152.64512691 136.5257894 -155.0625 134.0625 C-157.48516092 131.60455644 -159.91003922 129.14886031 -162.3377533 126.69590759 C-163.8403993 125.17653712 -165.33993397 123.65408054 -166.83570862 122.12794495 C-170.77042288 118.13767045 -174.81022899 114.37027276 -179.05613708 110.71430969 C-182.28813504 107.86398245 -185.31043655 104.81267946 -188.34375 101.75390625 C-188.99831177 101.09792953 -189.65287354 100.44195282 -190.32727051 99.76609802 C-192.38723823 97.70059855 -194.44367366 95.63162405 -196.5 93.5625 C-197.9086205 92.14885566 -199.31747267 90.73544214 -200.7265625 89.32226562 C-204.15372133 85.88416851 -207.57772019 82.44295344 -211 79 C-209.71396786 76.12479683 -208.44942556 74.2397169 -206.05859375 72.1953125 C-205.47948242 71.69676758 -204.90037109 71.19822266 -204.30371094 70.68457031 C-203.68786133 70.16991211 -203.07201172 69.65525391 -202.4375 69.125 C-201.80489258 68.59487305 -201.17228516 68.06474609 -200.52050781 67.51855469 C-198.69012505 65.99992504 -196.84762882 64.49756831 -195 63 C-194.15050781 62.30132813 -193.30101562 61.60265625 -192.42578125 60.8828125 C-188.11489502 57.64771296 -184.25011614 55.80083958 -178.77734375 56.171875 C-173.04929957 57.87981504 -168.5115849 61.84349128 -163.89160156 65.50732422 C-160.72546508 68.00574425 -157.48172748 70.39997693 -154.25 72.8125 C-152.91015571 73.82161387 -151.57031197 74.83072847 -150.23046875 75.83984375 C-145.70780183 79.23104488 -141.14219635 82.56134841 -136.5625 85.875 C-135.8415918 86.39811768 -135.12068359 86.92123535 -134.37792969 87.46020508 C-129.3329876 91.09894205 -124.19637495 94.58139232 -119 98 C-118.3915625 97.50113281 -117.783125 97.00226563 -117.15625 96.48828125 C-112.23530051 92.45744468 -107.30745561 88.43558699 -102.3671875 84.4284668 C-95.34102246 78.72917924 -88.34285231 72.99748596 -81.36572266 67.23828125 C-76.51443734 63.23722119 -71.63821721 59.26830995 -66.75 55.3125 C-61.30429442 50.90277429 -55.92151924 46.42807032 -50.58544922 41.88647461 C-44.57483644 36.77454871 -38.45059961 31.80487337 -32.328125 26.828125 C-26.76262878 22.29208473 -21.26087864 17.69003879 -15.79248047 13.03808594 C-11.53674098 9.42831832 -7.20654098 5.92129851 -2.828125 2.4609375 C-1.09166198 1.12864522 -1.09166198 1.12864522 0 0 Z " fill="#607A49" transform="translate(630,474)"/>
<path d="M0 0 C7.80346173 4.68759185 14.38476522 11.53972084 17.2109375 20.328125 C18.26321 31.71958655 17.383547 41.24847156 10.2109375 50.578125 C5.21093024 55.92520434 -2.50954045 60.14993646 -9.7890625 61.328125 C-21.71934991 61.40702902 -29.03126484 58.63636101 -37.73828125 50.62109375 C-44.47103317 43.09323589 -46.15106512 34.71150578 -46.0703125 24.91015625 C-45.6847672 19.99980847 -44.32482977 16.49879485 -41.7890625 12.328125 C-41.4384375 11.70421875 -41.0878125 11.0803125 -40.7265625 10.4375 C-32.24005932 -3.11733147 -14.0003887 -6.60483453 0 0 Z " fill="#FDF7E9" transform="translate(494.7890625,290.671875)"/>
<path d="M0 0 C7.4759139 5.1058325 11.17055276 11.51165828 14 20 C14.88795549 28.35019682 13.14149209 36.2988657 8.375 43.25 C3.37789101 49.37548844 -3.19502015 53.58091275 -11 55 C-19.62398057 55.86239806 -27.57970231 53.29841684 -34.375 47.875 C-40.58305458 41.97288651 -44.04897842 33.89090786 -44.3125 25.375 C-44.18421342 16.65151233 -40.71692099 9.95249 -34.79296875 3.6875 C-25.08092697 -5.45324521 -11.38151512 -7.15591529 0 0 Z " fill="#607A49" transform="translate(425,465)"/>
<path d="M0 0 C6.79253696 3.64807139 12.22640707 9.12322628 15.33984375 16.19921875 C17.74776449 24.890666 17.3887867 33.5914227 13.59765625 41.78515625 C8.80939568 50.06907184 2.8594058 54.27062433 -6.27734375 56.84765625 C-15.86640376 58.01705381 -23.37300487 56.18341408 -31.08984375 50.16015625 C-37.55797922 43.98124635 -41.15112665 36.41359372 -41.46484375 27.47265625 C-40.9367584 17.63853346 -36.86569981 10.89581391 -29.83984375 4.16015625 C-20.94951028 -2.59649719 -10.54245411 -4.11366177 0 0 Z " fill="#607A49" transform="translate(561.83984375,462.83984375)"/>
<path d="M0 0 C0 3.53580813 -0.44451318 3.84240185 -2.7890625 6.30078125 C-3.39468018 6.94184814 -4.00029785 7.58291504 -4.62426758 8.2434082 C-5.28450928 8.9262085 -5.94475098 9.60900879 -6.625 10.3125 C-7.29490967 11.01656982 -7.96481934 11.72063965 -8.6550293 12.44604492 C-13.88023571 17.91129363 -19.20493124 23.27810409 -24.60595703 28.56958008 C-27.02708889 30.95269299 -29.10839378 33.16259067 -31 36 C-31.66 35.67 -32.32 35.34 -33 35 C-28.12637241 29.43717254 -23.13576676 24.06964557 -17.875 18.875 C-13.89985934 14.94975911 -10.0919497 10.94511374 -6.46875 6.69140625 C-4.42440477 4.33714698 -2.23766801 2.16985989 0 0 Z " fill="#7AB094" transform="translate(402,663)"/>
<path d="M0 0 C0 3.67955095 -0.73759596 4.138162 -3.1875 6.75 C-6.45042333 10.33125731 -9.25667258 14.00970557 -12 18 C-12.33 17.01 -12.66 16.02 -13 15 C-13.5775 15.28875 -14.155 15.5775 -14.75 15.875 C-16.83333333 16.91666667 -18.91666667 17.95833333 -21 19 C-17.37088446 14.3270817 -13.52458542 10.80499026 -8.8125 7.25 C-4.24216013 3.81757762 -4.24216013 3.81757762 0 0 Z " fill="#374E1F" transform="translate(630,474)"/>
<path d="M0 0 C0.33 0 0.66 0 1 0 C1 10.56 1 21.12 1 32 C-2.00313748 33.50156874 -4.79067522 33.09281204 -8.125 33.0625 C-9.40632813 33.05347656 -10.68765625 33.04445313 -12.0078125 33.03515625 C-13.48894531 33.01775391 -13.48894531 33.01775391 -15 33 C-14.01 32.01 -13.02 31.02 -12 30 C-8.04 30 -4.08 30 0 30 C0 20.1 0 10.2 0 0 Z " fill="#77814C" transform="translate(463,346)"/>
<path d="M0 0 C3.63 1.32 7.26 2.64 11 4 C7 5 7 5 1 5 C1 12.92 1 20.84 1 29 C0.67 29 0.34 29 0 29 C0 19.43 0 9.86 0 0 Z " fill="#3B6235" transform="translate(464,347)"/>
<path d="M0 0 C0.33 1.32 0.66 2.64 1 4 C0.01 4.495 0.01 4.495 -1 5 C-1.72159424 6.64363134 -2.39351421 8.31050386 -3 10 C-3.66 10 -4.32 10 -5 10 C-5.103125 10.639375 -5.20625 11.27875 -5.3125 11.9375 C-5.539375 12.618125 -5.76625 13.29875 -6 14 C-6.99 14.33 -7.98 14.66 -9 15 C-7.61219205 11.10993227 -5.7847773 8.03441292 -3.375 4.6875 C-2.74335937 3.80449219 -2.11171875 2.92148437 -1.4609375 2.01171875 C-0.97882812 1.34785156 -0.49671875 0.68398438 0 0 Z " fill="#7BA072" transform="translate(623,554)"/>
<path d="M0 0 C1.98 1.65 3.96 3.3 6 5 C5.67 5.66 5.34 6.32 5 7 C-0.94 6.01 -0.94 6.01 -7 5 C-7 4.67 -7 4.34 -7 4 C-4.69 4 -2.38 4 0 4 C0 2.68 0 1.36 0 0 Z " fill="#396437" transform="translate(434,613)"/>
<path d="M0 0 C5.60547637 0.4804694 7.9136127 3.5649288 11.42578125 7.6640625 C12.63155784 9.0974082 13.81758687 10.54732101 15 12 C12 12 12 12 10.3515625 10.390625 C9.49691406 9.33101562 9.49691406 9.33101562 8.625 8.25 C5.97874757 5.08123913 3.35737034 2.44172388 0 0 Z " fill="#EFEFE5" transform="translate(406,583)"/>
<path d="M0 0 C4.83628658 3.93651233 9.51165799 7.76748698 13 13 C10 13 10 13 7.51953125 10.6640625 C6.60862148 9.65873726 5.70656694 8.64533316 4.8125 7.625 C4.34908203 7.11710938 3.88566406 6.60921875 3.40820312 6.0859375 C0 2.27115933 0 2.27115933 0 0 Z " fill="#F1F3EA" transform="translate(481,663)"/>
<path d="M0 0 C1 2 1 2 0.1875 4.5625 C-1 7 -1 7 -3 8 C-3 7.01 -3 6.02 -3 5 C-3.5775 5.28875 -4.155 5.5775 -4.75 5.875 C-7.875 7.4375 -7.875 7.4375 -11 9 C-7.9107201 4.93980356 -6.00970974 2.53074464 -1 1 C-0.67 0.67 -0.34 0.34 0 0 Z " fill="#46602E" transform="translate(620,484)"/>
<path d="M0 0 C3.3 0 6.6 0 10 0 C9.67 1.32 9.34 2.64 9 4 C2.25 3.125 2.25 3.125 0 2 C0 1.34 0 0.68 0 0 Z " fill="#DFA761" transform="translate(320,736)"/>
<path d="M0 0 C0.33 0 0.66 0 1 0 C0.50130596 5.36891879 -0.02227532 10.69235173 -1 16 C-1.33 16 -1.66 16 -2 16 C-2.05423638 14.08364783 -2.09289963 12.16685075 -2.125 10.25 C-2.14820313 9.18265625 -2.17140625 8.1153125 -2.1953125 7.015625 C-2.00487687 4.07529894 -1.52670104 2.47638122 0 0 Z " fill="#F2AA5F" transform="translate(257,337)"/>
<path d="M0 0 C2.3129482 2.3129482 2.49580975 3.47904875 3.125 6.625 C3.29257812 7.44226563 3.46015625 8.25953125 3.6328125 9.1015625 C3.81457031 10.04128906 3.81457031 10.04128906 4 11 C3.01 11.66 2.02 12.32 1 13 C0.67 8.71 0.34 4.42 0 0 Z " fill="#314E1C" transform="translate(618,438)"/>
<path d="M0 0 C0.33 1.32 0.66 2.64 1 4 C-0.21484375 5.921875 -0.21484375 5.921875 -1.9375 7.75 C-2.50339844 8.36359375 -3.06929687 8.9771875 -3.65234375 9.609375 C-4.31943359 10.29773438 -4.31943359 10.29773438 -5 11 C-5.33 10.34 -5.66 9.68 -6 9 C-4.02 6.03 -2.04 3.06 0 0 Z " fill="#799F6F" transform="translate(563,645)"/>
<path d="M0 0 C0.33 0 0.66 0 1 0 C1 2.64 1 5.28 1 8 C0.67 8 0.34 8 0 8 C0 5.36 0 2.72 0 0 Z " fill="#98B18D" transform="translate(772,541)"/>
<path d="M0 0 C0.33 0 0.66 0 1 0 C1 2.64 1 5.28 1 8 C0.67 8 0.34 8 0 8 C0 5.36 0 2.72 0 0 Z " fill="#98B18C" transform="translate(772,483)"/>
<path d="M0 0 C0.33 0 0.66 0 1 0 C1 2.31 1 4.62 1 7 C0.67 7 0.34 7 0 7 C0 4.69 0 2.38 0 0 Z " fill="#98B18D" transform="translate(772,533)"/>
<path d="M0 0 C0.33 0 0.66 0 1 0 C1 2.31 1 4.62 1 7 C0.67 7 0.34 7 0 7 C0 4.69 0 2.38 0 0 Z " fill="#98B18C" transform="translate(772,465)"/>
<path d="M0 0 C0.33 0 0.66 0 1 0 C1 1.65 1 3.3 1 5 C0.67 5 0.34 5 0 5 C0 3.35 0 1.7 0 0 Z " fill="#98B18C" transform="translate(772,499)"/>
<path d="M0 0 C0.33 0 0.66 0 1 0 C1 1.65 1 3.3 1 5 C0.67 5 0.34 5 0 5 C0 3.35 0 1.7 0 0 Z " fill="#98B28D" transform="translate(772,422)"/>
<path d="M0 0 C0.33 0 0.66 0 1 0 C1 1.65 1 3.3 1 5 C0.67 5 0.34 5 0 5 C0 3.35 0 1.7 0 0 Z " fill="#9CB48F" transform="translate(772,389)"/>
<path d="M0 0 C1.32 0.33 2.64 0.66 4 1 C3.01 1.495 3.01 1.495 2 2 C1.34 1.34 0.68 0.68 0 0 Z " fill="#DFA564" transform="translate(708,264)"/>
<path d="M0 0 C3 1 3 1 3 1 Z " fill="#96B18A" transform="translate(685,743)"/>
<path d="" fill="#97B08C" transform="translate(0,0)"/>
<path d="" fill="#97B08B" transform="translate(0,0)"/>
<path d="" fill="#97B18B" transform="translate(0,0)"/>
<path d="" fill="#98B18C" transform="translate(0,0)"/>
<path d="" fill="#98B28C" transform="translate(0,0)"/>
<path d="" fill="#97B18B" transform="translate(0,0)"/>
<path d="" fill="#97B18B" transform="translate(0,0)"/>
<path d="" fill="#98B18C" transform="translate(0,0)"/>
<path d="" fill="#98B18C" transform="translate(0,0)"/>
<path d="" fill="#98B18D" transform="translate(0,0)"/>
<path d="" fill="#98B18B" transform="translate(0,0)"/>
<path d="" fill="#98B28C" transform="translate(0,0)"/>
<path d="" fill="#98B28C" transform="translate(0,0)"/>
<path d="" fill="#99B28D" transform="translate(0,0)"/>
<path d="" fill="#99B18D" transform="translate(0,0)"/>
<path d="" fill="#AABC98" transform="translate(0,0)"/>
<path d="M0 0 C3 1 3 1 3 1 Z " fill="#DEA261" transform="translate(313,264)"/>
<path d="M0 0 C2 1 2 1 2 1 Z " fill="#B3AB7A" transform="translate(328,742)"/>
<path d="" fill="#DDA460" transform="translate(0,0)"/>
<path d="" fill="#95B08A" transform="translate(0,0)"/>
<path d="" fill="#97B08C" transform="translate(0,0)"/>
<path d="" fill="#97B18C" transform="translate(0,0)"/>
<path d="" fill="#97B18D" transform="translate(0,0)"/>
<path d="" fill="#98B28D" transform="translate(0,0)"/>
<path d="" fill="#97B28C" transform="translate(0,0)"/>
<path d="" fill="#98B18C" transform="translate(0,0)"/>
<path d="" fill="#98B28D" transform="translate(0,0)"/>
<path d="" fill="#98B28C" transform="translate(0,0)"/>
<path d="" fill="#99B28D" transform="translate(0,0)"/>
<path d="" fill="#98B28C" transform="translate(0,0)"/>
<path d="" fill="#99B18C" transform="translate(0,0)"/>
<path d="" fill="#99B28E" transform="translate(0,0)"/>
<path d="" fill="#99B38D" transform="translate(0,0)"/>
<path d="" fill="#9AB18D" transform="translate(0,0)"/>
<path d="" fill="#9BB28F" transform="translate(0,0)"/>
<path d="" fill="#9FB592" transform="translate(0,0)"/>
<path d="" fill="#A2B693" transform="translate(0,0)"/>
<path d="" fill="#323726" transform="translate(0,0)"/>
<path d="" fill="#94AE87" transform="translate(0,0)"/>
<path d="" fill="#9BAE88" transform="translate(0,0)"/>
<path d="" fill="#95AF89" transform="translate(0,0)"/>
<path d="" fill="#9DB087" transform="translate(0,0)"/>
<path d="" fill="#9FB187" transform="translate(0,0)"/>
<path d="" fill="#92AB87" transform="translate(0,0)"/>
<path d="" fill="#93AD89" transform="translate(0,0)"/>
<path d="" fill="#94AE87" transform="translate(0,0)"/>
<path d="" fill="#95B18A" transform="translate(0,0)"/>
<path d="" fill="#D0A467" transform="translate(0,0)"/>
<path d="" fill="#D4A56A" transform="translate(0,0)"/>
<path d="" fill="#95AE87" transform="translate(0,0)"/>
<path d="" fill="#DCA363" transform="translate(0,0)"/>
<path d="" fill="#DAA262" transform="translate(0,0)"/>
<path d="" fill="#D9A161" transform="translate(0,0)"/>
<path d="" fill="#DDA362" transform="translate(0,0)"/>
<path d="" fill="#DCA360" transform="translate(0,0)"/>
<path d="" fill="#96B28D" transform="translate(0,0)"/>
<path d="" fill="#DEA161" transform="translate(0,0)"/>
<path d="" fill="#DCA05E" transform="translate(0,0)"/>
<path d="" fill="#95B089" transform="translate(0,0)"/>
<path d="" fill="#DDA360" transform="translate(0,0)"/>
<path d="" fill="#E0A360" transform="translate(0,0)"/>
<path d="" fill="#98B18A" transform="translate(0,0)"/>
<path d="" fill="#97B08B" transform="translate(0,0)"/>
<path d="" fill="#97B38C" transform="translate(0,0)"/>
<path d="" fill="#97B28D" transform="translate(0,0)"/>
<path d="" fill="#97B28C" transform="translate(0,0)"/>
<path d="" fill="#99B28C" transform="translate(0,0)"/>
<path d="" fill="#98B08A" transform="translate(0,0)"/>
<path d="" fill="#99B28C" transform="translate(0,0)"/>
<path d="" fill="#99B38C" transform="translate(0,0)"/>
<path d="" fill="#97B28C" transform="translate(0,0)"/>
<path d="" fill="#97B18C" transform="translate(0,0)"/>
<path d="" fill="#9BB38F" transform="translate(0,0)"/>
<path d="" fill="#9AB38F" transform="translate(0,0)"/>
<path d="" fill="#99B18F" transform="translate(0,0)"/>
<path d="" fill="#A0B692" transform="translate(0,0)"/>
<path d="" fill="#DEA262" transform="translate(0,0)"/>
<path d="" fill="#A8B997" transform="translate(0,0)"/>
<path d="" fill="#DEA360" transform="translate(0,0)"/>
<path d="" fill="#C8C9AB" transform="translate(0,0)"/>
<path d="" fill="#D7D5B6" transform="translate(0,0)"/>
<path d="" fill="#DEA462" transform="translate(0,0)"/>
<path d="" fill="#DCA55F" transform="translate(0,0)"/>
<path d="" fill="#E0C598" transform="translate(0,0)"/>
<path d="" fill="#DDA361" transform="translate(0,0)"/>
<path d="" fill="#DBB582" transform="translate(0,0)"/>
<path d="" fill="#DAA162" transform="translate(0,0)"/>
<path d="" fill="#DBA25D" transform="translate(0,0)"/>
<path d="" fill="#E1AE6E" transform="translate(0,0)"/>
<path d="" fill="#E0A35F" transform="translate(0,0)"/>
<path d="" fill="#DCA163" transform="translate(0,0)"/>
<path d="" fill="#E0A865" transform="translate(0,0)"/>
<path d="" fill="#DEA15F" transform="translate(0,0)"/>
<path d="" fill="#DA9F5F" transform="translate(0,0)"/>
<path d="" fill="#DEA361" transform="translate(0,0)"/>
<path d="" fill="#E1A260" transform="translate(0,0)"/>
<path d="" fill="#493D2A" transform="translate(0,0)"/>
<path d="" fill="#23261A" transform="translate(0,0)"/>
</svg>
